<svg width="75" height="53" viewBox="0 0 75 53" fill="none" xmlns="http://www.w3.org/2000/svg">
<rect width="75" height="53" rx="26.5" fill="#F57E71"/>
<path d="M47.8875 36.1125L43.6375 31.875C45.0087 30.1281 45.7528 27.9708 45.75 25.75C45.75 23.7722 45.1635 21.8388 44.0647 20.1943C42.9659 18.5498 41.4041 17.2681 39.5768 16.5112C37.7496 15.7543 35.7389 15.5563 33.7991 15.9422C31.8593 16.328 30.0775 17.2804 28.6789 18.6789C27.2804 20.0775 26.328 21.8593 25.9422 23.7991C25.5563 25.7389 25.7543 27.7496 26.5112 29.5768C27.2681 31.4041 28.5498 32.9659 30.1943 34.0647C31.8388 35.1635 33.7722 35.75 35.75 35.75C37.9708 35.7528 40.1281 35.0087 41.875 33.6375L46.1125 37.8875C46.2287 38.0047 46.367 38.0977 46.5193 38.1611C46.6716 38.2246 46.835 38.2573 47 38.2573C47.165 38.2573 47.3284 38.2246 47.4807 38.1611C47.633 38.0977 47.7713 38.0047 47.8875 37.8875C48.0047 37.7713 48.0977 37.633 48.1611 37.4807C48.2246 37.3284 48.2573 37.165 48.2573 37C48.2573 36.835 48.2246 36.6716 48.1611 36.5193C48.0977 36.367 48.0047 36.2287 47.8875 36.1125V36.1125ZM28.25 25.75C28.25 24.2666 28.6899 22.8166 29.514 21.5832C30.3381 20.3499 31.5094 19.3886 32.8799 18.8209C34.2503 18.2533 35.7583 18.1047 37.2132 18.3941C38.668 18.6835 40.0044 19.3978 41.0533 20.4467C42.1022 21.4956 42.8165 22.832 43.1059 24.2868C43.3953 25.7417 43.2468 27.2497 42.6791 28.6201C42.1114 29.9906 41.1502 31.1619 39.9168 31.986C38.6834 32.8101 37.2334 33.25 35.75 33.25C33.7609 33.25 31.8532 32.4598 30.4467 31.0533C29.0402 29.6468 28.25 27.7391 28.25 25.75Z" fill="#F9F9F9"/>
</svg>
